<?xml version="1.0" encoding="UTF-8"?>
<svg width="128pt" height="128pt" version="1.1" viewBox="0 0 128 128" xmlns="http://www.w3.org/2000/svg">
 <path d="m97.422 111.25c-0.72266 0.042969-1.8008 0.64844-2.4062 1.3633-0.60156 0.71094-0.50391 1.2539 0.21875 1.2148s1.8008-0.64844 2.4062-1.3594c0.60156-0.71484 0.50391-1.2617-0.21875-1.2188z" fill="#00ce66"/>
 <path d="m65.816 0.19922c1.375-0.078125 2.6406-0.058594 3.8164 0.042969-3.5195-0.28516-3.9531-0.26953-9.2383-0.14844-3.4453 0.22656-4.1055 0.33203-8.4141 1.0273-2.3906 0.46094-2.6914 0.54688-6.3711 1.5547l-1.1914 0.36719c-10.164 3.2695-21.914 10.91-29.215 19.508-0.003906 0.003907-0.007813 0.007813-0.011719 0.015625-3.6797 4.3555-5.418 7.3594-7.4297 10.836-2.3477 4.332-3.6875 8.1328-4.7695 11.188 1.2617-3.957 3.9648-8.5352 8.1523-13.469 13.723-16.16 38.199-30 54.672-30.922z" fill="#00ce66"/>
 <path d="m13.309 50.395c18.453-21.734 51.383-40.359 73.547-41.594 6.2891-0.35156 11.031 0.73438 14.184 2.9688-3.0625-2.1523-3.3945-2.332-8.9219-5.293-3.1016-1.5039-3.3281-1.582-9.1523-3.6211-2.3477-0.72266-5.2305-1.0156-8.6328-0.82812-19.188 1.0664-47.691 17.188-63.668 36.008-6.4453 7.5898-9.8672 14.461-10.395 19.887-0.32031 3.457-0.31641 3.5781-0.18359 9.8711 0.23828 3.75 0.28516 3.9922 1.4531 10.297-1.5156-6.7422 2.3047-16.543 11.77-27.695z" fill="#00ce66"/>
 <path d="m26.746 73.457c19.309-22.742 53.762-42.23 76.949-43.52 9.9297-0.55469 16.184 2.3203 18.57 7.5664l-0.27734-0.59375c-1.3203-2.5781-3.2305-5.9453-4.7422-8.418-1.8125-2.5039-4.3711-5.7461-6.3828-8.0977-3.1445-3.3906-8.7305-5.1289-16.656-4.6914-23.184 1.293-57.633 20.777-76.941 43.52-11.043 13.008-14.742 24.262-11.551 31.273 1.4961 3.2383 1.4961 3.2383 5.0156 9.0117 1.5391 2.1758 3.7305 4.9727 5.4141 7.0312l0.96875 1.0664c-6.0586-6.5234-3.0781-19.176 9.6328-34.148z" fill="#00ce66"/>
 <path d="m127.77 58.469c-0.29688-2.5742-0.84766-5.9922-1.3203-8.5391-1.4336-6.4062-7.6836-10.047-18.484-9.4453-22.164 1.2344-55.094 19.855-73.547 41.594-13.227 15.578-15.43 28.531-7.457 34.164 1.9531 1.3164 4.6445 2.9453 6.6719 4.1367 4.0234 2.0938 4.7344 2.3594 10.309 4.4219l1.0898 0.34766c-10.895-3.3438-10.324-15.828 2.8203-31.309 15.969-18.82 44.473-34.941 63.656-36.008 11.438-0.63672 16.98 4.2188 16.207 12.23l0.03125-0.33203c0.34766-4.5664 0.31641-5.1992 0.023437-11.262z" fill="#00ce66"/>
 <path d="m114.05 103.87c-0.39453 0.5-0.81641 1.0195-1.2656 1.5664 0.44922-0.53125 0.86328-1.0508 1.2656-1.5664z" fill="#00ce66"/>
 <path d="m111.84 69.285c-16.473 0.91797-40.949 14.762-54.668 30.918-12.625 14.871-11.738 26.52 1.3242 27.562 3.3633 0.26953 3.6875 0.26172 9.0781 0.13281 3.4414-0.22656 4.1055-0.33203 8.4141-1.0312 2.3945-0.46094 2.6953-0.54688 6.375-1.5508l1.207-0.375c-2.9141 0.9375-5.6992 1.5195-8.2109 1.6562-11.27 0.62891-12.801-7.8281-3.4141-18.887 9.3867-11.059 26.137-20.531 37.41-21.156 10.73-0.59766 12.621 7.0352 4.6875 17.309 3.0312-3.8281 4.6484-6.4883 7.1406-11.125 1.8164-3.75 2.0391-4.375 3.7656-9.2266 2.9414-9.0508-1.6211-14.867-13.109-14.227z" fill="#00ce66"/>
 <path d="m105.83 97.012c-7.375 0.41016-18.328 6.6055-24.469 13.836-6.1406 7.2344-5.1406 12.762 2.2305 12.352 7.375-0.41016 18.328-6.6055 24.469-13.84-2.8438 1.6523-6.3242 2.7227-10.422 3.1016-0.60156 0.71094-1.6797 1.3203-2.4062 1.3594-0.72266 0.042969-0.82422-0.50391-0.21875-1.2148 0.60547-0.71094 1.6797-1.3203 2.4062-1.3633 0.72266-0.039063 0.82422 0.50391 0.21875 1.2148 4.0977-0.37891 7.5781-1.4492 10.422-3.1016 6.1445-7.2227 5.1445-12.754-2.2305-12.344z" fill="#00ce66"/>
</svg>
