<?xml version="1.0" encoding="UTF-8"?>
<svg width="128pt" height="128pt" version="1.1" viewBox="0 0 128 128" xmlns="http://www.w3.org/2000/svg">
 <path d="m128 64c0 35.348-28.652 64-64 64s-64-28.652-64-64 28.652-64 64-64 64 28.652 64 64z" fill="#ffd65b"/>
 <path d="m53.16 33.68c-4.6797 0-8.4883 3.8086-8.4883 8.4883 0 4.6797 3.8086 8.4844 8.4883 8.4844 4.6797 0 8.4844-3.8086 8.4844-8.4844 0.003907-4.6836-3.8047-8.4883-8.4844-8.4883z" fill="#fff"/>
 <path d="m53.16 77.348c-4.6797 0-8.4883 3.8086-8.4883 8.4883 0 4.6797 3.8086 8.4844 8.4883 8.4844 4.6797 0 8.4844-3.8086 8.4844-8.4844 0.003907-4.6797-3.8047-8.4883-8.4844-8.4883z" fill="#fff"/>
 <path d="m74.84 33.68c-4.6797 0-8.4883 3.8086-8.4883 8.4883 0 4.6797 3.8086 8.4844 8.4883 8.4844 4.6797 0 8.4844-3.8086 8.4844-8.4844 0-4.6836-3.8047-8.4883-8.4844-8.4883z" fill="#fff"/>
 <path d="m74.84 59.91c-2.0977 0-3.8047 1.707-3.8047 3.8047s1.707 3.8047 3.8047 3.8047 3.8047-1.707 3.8047-3.8047-1.707-3.8047-3.8047-3.8047z" fill="#fff"/>
 <path d="m56.965 64.566c0-2.0977-1.707-3.8047-3.8047-3.8047s-3.8047 1.707-3.8047 3.8047 1.707 3.8047 3.8047 3.8047c2.0977 0.003906 3.8047-1.707 3.8047-3.8047z" fill="#fff"/>
 <path d="m74.84 81.176c-2.0977 0-3.8047 1.707-3.8047 3.8047 0 2.0977 1.707 3.8047 3.8047 3.8047s3.8047-1.707 3.8047-3.8047c0-2.0977-1.707-3.8047-3.8047-3.8047z" fill="#fff"/>
</svg>
